<svg width="90" height="90" viewBox="0 0 167 196" fill="none" xmlns="http://www.w3.org/2000/svg">
<path d="M2.87379 28.4414L3.25409 28.4414L3.63439 30.5331L4.29992 32.4346L5.72604 34.5262L10.8601 39.6603L27.8786 47.5515L44.897 52.0201L64.2924 54.3969L83.6877 55.6329L83.6877 139.299L64.2924 139.299L37.1009 134.926L25.5017 130.933L13.9025 126.179L0.972282 115.15L2.87379 28.4414Z" fill="url(#paint0_linear_0_130)"/>
<path d="M83.6878 55.2524L94.6214 55.4901L105.555 56.4884L116.489 57.4867L127.422 59.2456L148.909 66.091L156.991 71.0349L165.072 78.2607L165.072 165.159L159.938 157.553L151.762 151.849L136.74 145.859L121.718 142.912L102.703 140.345L83.6878 139.299L83.6878 55.2524Z" fill="url(#paint1_linear_0_130)"/>
<path d="M8.95893 23.3075L12.1912 17.9832L18.0865 13.0955L27.2142 8.96837L36.3418 6.17228L45.4694 4.13679L55.395 2.50318L65.3207 1.24987L65.3207 12.2787L55.9669 13.0566L51.4802 14.0507L46.9935 14.6645L38.02 17.2231L29.0466 19.4014L19.7632 23.5412L10.8602 31.1036L8.95879 26.6351L8.95893 23.3075Z" fill="#FED7AA"/>
<path d="M159.297 171.223L156.094 176.565L150.225 181.484L141.12 185.661L132.008 188.506L122.891 190.591L112.974 192.278L103.056 193.585L102.996 182.557L112.345 181.728L116.827 180.71L121.31 180.072L130.269 177.465L139.231 175.238L148.492 171.048L157.354 163.437L159.279 167.895L159.297 171.223Z" fill="#EA580C"/>
<path d="M20.1759 33.1325L25.2229 30.7256L29.2695 29.5025L35.5562 27.3294L41.8512 26.1207L48.151 24.7025L55.0051 23.5806L61.8617 22.7341L61.8617 33.1955L55.4663 33.8931L49.2681 34.7268L36.886 37.287L30.4916 39.088L25.2229 41.1579L20.7981 39.1733L18.3955 37.8007L15.993 36.0477L20.1759 33.1325Z" fill="#FED7AA"/>
<path d="M148.028 161.459L142.994 163.893L138.954 165.138L132.679 167.345L126.391 168.588L120.099 170.04L113.251 171.199L106.399 172.083L106.343 161.622L112.734 160.889L118.928 160.022L131.296 157.395L137.68 155.559L142.938 153.461L147.373 155.422L149.783 156.781L152.195 158.521L148.028 161.459Z" fill="#EA580C"/>
<path d="M42.0775 41.8806L43.6616 41.7147L44.9343 41.32L46.9105 41.333L48.8928 41.0609L50.8759 41.0662L53.035 40.8656L55.5462 40.8656L55.5462 47.6259L53.2179 47.4905L51.2648 47.2026L47.3663 46.6869L42.616 46.0331L39.0981 45.3676L36.9588 44.8446L34.8196 44.3217L38.4486 42.911L42.0775 41.8806Z" fill="#FED7AA"/>
<path d="M126.078 152.83L124.495 153.004L123.224 153.406L121.248 153.403L119.267 153.686L117.284 153.692L115.126 153.904L112.615 153.918L112.578 147.157L114.907 147.28L116.862 147.558L120.763 148.052L125.517 148.68L129.038 149.327L131.18 149.838L133.322 150.349L129.701 151.78L126.078 152.83Z" fill="#EA580C"/>
<path d="M2.92319 28.4106H3.30556L3.68793 30.5137L4.35708 32.4255L5.79096 34.5286L10.9529 39.6905L28.064 47.6247L45.175 52.1175L64.6758 54.5074L84.1767 55.7501V139.871H64.6758L37.3364 135.474L25.6742 131.459L14.0119 126.68L1.01134 115.591L2.92319 28.4106Z" fill="url(#paint2_linear_0_130)"/>
<path d="M84.184 55.3667L95.1771 55.6057L106.17 56.6094L117.163 57.6131L128.156 59.3816L149.76 66.2642L157.886 71.235L166.011 78.5001V165.871L160.849 158.224L152.628 152.489L137.524 146.466L122.421 143.503L103.302 140.922L84.184 139.87V55.3667Z" fill="url(#paint3_linear_0_130)"/>
<path d="M9.04052 23.2488L12.2904 17.8956L18.2178 12.9813L27.395 8.83171L36.5723 6.02041L45.7495 3.97384L55.7292 2.33135L65.7089 1.07123L65.7089 12.1601L56.3042 12.9422L51.7931 13.9417L47.2819 14.5588L38.2597 17.1313L29.2374 19.3215L19.9036 23.4838L10.9521 31.0874L9.04038 26.5945L9.04052 23.2488Z" fill="#FED7AA"/>
<path d="M160.197 171.968L156.977 177.338L151.076 182.285L141.921 186.484L132.759 189.345L123.593 191.441L113.623 193.138L103.65 194.452L103.59 183.363L112.99 182.53L117.496 181.506L122.004 180.865L131.012 178.243L140.022 176.004L149.333 171.792L158.243 164.14L160.179 168.622L160.197 171.968Z" fill="#EA580C"/>
<path d="M20.3044 33.127L25.3788 30.707L29.4474 29.4772L35.7683 27.2923L42.0976 26.077L48.4316 24.6512L55.323 23.5231L62.2168 22.6721L62.2168 33.1903L55.7866 33.8918L49.5548 34.73L37.1053 37.3041L30.6762 39.1149L25.3788 41.1961L20.9299 39.2006L18.5143 37.8205L16.0987 36.0581L20.3044 33.127Z" fill="#FED7AA"/>
<path d="M148.856 162.152L143.795 164.599L139.733 165.851L133.424 168.07L127.102 169.319L120.775 170.78L113.89 171.945L107.001 172.833L106.944 162.315L113.37 161.579L119.598 160.707L132.033 158.065L138.452 156.22L143.738 154.11L148.198 156.081L150.621 157.448L153.046 159.198L148.856 162.152Z" fill="#EA580C"/>
<path d="M37.2989 39.9109L38.8916 39.7442L40.1712 39.3474L42.1582 39.3604L44.1513 39.0869L46.1451 39.0922L48.3159 38.8904L50.8408 38.8904L50.8408 45.6876L48.4998 45.5515L46.5361 45.2619L42.6164 44.7434L37.8403 44.0861L34.3032 43.4169L32.1524 42.8911L30.0015 42.3654L33.6502 40.947L37.2989 39.9109Z" fill="#FED7AA"/>
<path d="M126.786 153.474L125.195 153.65L123.917 154.054L121.93 154.051L119.939 154.336L117.945 154.341L115.775 154.555L113.25 154.568L113.213 147.771L115.555 147.895L117.52 148.174L121.443 148.671L126.223 149.302L129.763 149.952L131.917 150.466L134.071 150.981L130.43 152.419L126.786 153.474Z" fill="#EA580C"/>
<path d="M2.92124 28.7529H3.30361L3.68598 30.856L4.35512 32.7678L5.78901 34.8708L10.951 40.0328L28.062 47.967L45.1731 52.4598L64.6739 54.8496L84.1747 56.0923V140.214H64.6739L37.3345 135.816L25.6722 131.801L14.01 127.022L1.00939 115.933L2.92124 28.7529Z" fill="url(#paint4_linear_0_130)"/>
<path d="M84.182 55.709L95.1751 55.948L106.168 56.9517L117.161 57.9554L128.154 59.7239L149.758 66.6065L157.884 71.5773L166.009 78.8423V166.214L160.847 158.566L152.626 152.831L137.523 146.809L122.419 143.845L103.3 141.264L84.182 140.213V55.709Z" fill="url(#paint5_linear_0_130)"/>
<path d="M9.03857 23.5911L12.2884 18.2379L18.2158 13.3236L27.3931 9.17399L36.5703 6.36269L45.7476 4.31613L55.7272 2.67364L65.7069 1.41351L65.7069 12.5024L56.3023 13.2844L51.7911 14.2839L47.28 14.9011L38.2577 17.4736L29.2354 19.6638L19.9016 23.826L10.9501 31.4296L9.03842 26.9368L9.03857 23.5911Z" fill="#FED7AA"/>
<path d="M160.195 172.31L156.975 177.681L151.074 182.627L141.919 186.826L132.757 189.687L123.591 191.783L113.621 193.48L103.648 194.794L103.588 183.705L112.988 182.872L117.494 181.849L122.002 181.207L131.01 178.586L140.02 176.347L149.331 172.134L158.241 164.482L160.177 168.964L160.195 172.31Z" fill="#EA580C"/>
<path d="M20.3024 33.4693L25.3768 31.0493L29.4455 29.8195L35.7664 27.6346L42.0956 26.4193L48.4296 24.9935L55.321 23.8654L62.2149 23.0144L62.2149 33.5326L55.7847 34.234L49.5528 35.0723L37.1034 37.6464L30.6742 39.4572L25.3768 41.5383L20.9279 39.5429L18.5123 38.1628L16.0967 36.4004L20.3024 33.4693Z" fill="#FED7AA"/>
<path d="M148.854 162.494L143.793 164.941L139.731 166.193L133.422 168.412L127.1 169.662L120.773 171.122L113.888 172.287L106.999 173.176L106.942 162.657L113.368 161.921L119.596 161.049L132.031 158.408L138.45 156.562L143.736 154.452L148.196 156.424L150.619 157.791L153.044 159.54L148.854 162.494Z" fill="#EA580C"/>
<path d="M37.297 40.2532L38.8896 40.0865L40.1693 39.6897L42.1562 39.7027L44.1493 39.4292L46.1431 39.4345L48.314 39.2327L50.8389 39.2327L50.8389 46.0299L48.4979 45.8937L46.5341 45.6042L42.6144 45.0857L37.8383 44.4284L34.3013 43.7592L32.1504 43.2334L29.9995 42.7076L33.6482 41.2893L37.297 40.2532Z" fill="#FED7AA"/>
<path d="M126.785 153.817L125.193 153.992L123.915 154.396L121.928 154.394L119.937 154.678L117.943 154.683L115.773 154.897L113.248 154.911L113.212 148.113L115.553 148.237L117.519 148.516L121.441 149.013L126.221 149.645L129.761 150.295L131.915 150.809L134.069 151.323L130.428 152.761L126.785 153.817Z" fill="#EA580C"/>
<path d="M2.91929 28.9243H3.30166L3.68402 31.0273L4.35317 32.9392L5.78706 35.0422L10.949 40.2042L28.0601 48.1384L45.1711 52.6312L64.6719 55.021L84.1728 56.2637V140.385H64.6719L37.3325 135.988L25.6703 131.973L14.008 127.193L1.00744 116.105L2.91929 28.9243Z" fill="url(#paint6_linear_0_130)"/>
<path d="M84.1801 55.8804L95.1732 56.1194L106.166 57.1231L117.159 58.1268L128.153 59.8953L149.756 66.7779L157.882 71.7487L166.007 79.0137V166.385L160.845 158.738L152.624 153.002L137.521 146.98L122.417 144.017L103.299 141.436L84.1801 140.384V55.8804Z" fill="url(#paint7_linear_0_130)"/>
<path d="M9.03661 23.7625L12.2865 18.4093L18.2139 13.495L27.3911 9.34538L36.5684 6.53408L45.7456 4.48752L55.7253 2.84503L65.705 1.5849L65.7049 12.6737L56.3003 13.4558L51.7892 14.4553L47.278 15.0724L38.2558 17.645L29.2335 19.8352L19.8997 23.9974L10.9482 31.601L9.03647 27.1082L9.03661 23.7625Z" fill="#FED7AA"/>
<path d="M160.193 172.481L156.973 177.852L151.072 182.798L141.917 186.998L132.755 189.859L123.589 191.955L113.619 193.651L103.646 194.965L103.586 183.877L112.986 183.044L117.492 182.02L122 181.378L131.008 178.757L140.018 176.518L149.329 172.305L158.239 164.653L160.175 169.136L160.193 172.481Z" fill="#EA580C"/>
<path d="M20.3005 33.6407L25.3748 31.2207L29.4435 29.9909L35.7644 27.806L42.0937 26.5907L48.4277 25.1648L55.3191 24.0368L62.2129 23.1857L62.2129 33.704L55.7827 34.4054L49.5509 35.2437L37.1014 37.8178L30.6723 39.6286L25.3748 41.7097L20.926 39.7143L18.5104 38.3342L16.0947 36.5718L20.3005 33.6407Z" fill="#FED7AA"/>
<path d="M148.852 162.665L143.791 165.113L139.729 166.364L133.42 168.584L127.098 169.833L120.771 171.293L113.886 172.459L106.997 173.347L106.94 162.829L113.366 162.093L119.594 161.221L132.029 158.579L138.448 156.734L143.734 154.624L148.194 156.595L150.617 157.962L153.042 159.711L148.852 162.665Z" fill="#EA580C"/>
<path d="M37.295 40.4246L38.8877 40.2579L40.1673 39.861L42.1543 39.8741L44.1474 39.6005L46.1412 39.6058L48.312 39.4041L50.8369 39.4041L50.8369 46.2013L48.4959 46.0651L46.5322 45.7756L42.6125 45.2571L37.8364 44.5998L34.2993 43.9306L32.1485 43.4048L29.9976 42.879L33.6463 41.4606L37.295 40.4246Z" fill="#FED7AA"/>
<path d="M126.783 153.988L125.191 154.163L123.913 154.567L121.926 154.565L119.935 154.849L117.941 154.855L115.771 155.068L113.246 155.082L113.21 148.285L115.551 148.408L117.517 148.687L121.439 149.185L126.219 149.816L129.759 150.466L131.913 150.98L134.067 151.494L130.426 152.932L126.783 153.988Z" fill="#EA580C"/>
<path d="M2.91929 29.0098H3.30166L3.68402 31.1128L4.35317 33.0246L5.78706 35.1277L10.949 40.2897L28.0601 48.2238L45.1711 52.7167L64.6719 55.1065L84.1728 56.3492V140.47H64.6719L37.3325 136.073L25.6703 132.058L14.008 127.279L1.00744 116.19L2.91929 29.0098Z" fill="url(#paint8_linear_0_130)"/>
<path d="M84.1801 55.9658L95.1732 56.2048L106.166 57.2085L117.159 58.2122L128.153 59.9807L149.756 66.8633L157.882 71.8342L166.007 79.0992V166.471L160.845 158.823L152.624 153.088L137.521 147.065L122.417 144.102L103.299 141.521L84.1801 140.469V55.9658Z" fill="url(#paint9_linear_0_130)"/>
<path d="M9.03661 23.8479L12.2865 18.4947L18.2139 13.5804L27.3911 9.43083L36.5684 6.61953L45.7456 4.57296L55.7253 2.93047L65.705 1.67035L65.7049 12.7592L56.3003 13.5413L51.7892 14.5408L47.278 15.1579L38.2558 17.7304L29.2335 19.9206L19.8997 24.0829L10.9482 31.6865L9.03647 27.1936L9.03661 23.8479Z" fill="#FED7AA"/>
<path d="M160.193 172.567L156.973 177.938L151.072 182.884L141.917 187.083L132.755 189.944L123.589 192.04L113.619 193.737L103.646 195.051L103.586 183.962L112.986 183.129L117.492 182.105L122 181.464L131.008 178.842L140.018 176.603L149.329 172.391L158.239 164.739L160.175 169.221L160.193 172.567Z" fill="#EA580C"/>
<path d="M20.3005 33.7261L25.3748 31.3062L29.4435 30.0764L35.7644 27.8914L42.0937 26.6762L48.4277 25.2503L55.3191 24.1222L62.2129 23.2712L62.2129 33.7894L55.7827 34.4909L49.5509 35.3291L37.1014 37.9032L30.6723 39.714L25.3748 41.7952L20.926 39.7998L18.5104 38.4197L16.0947 36.6572L20.3005 33.7261Z" fill="#FED7AA"/>
<path d="M148.852 162.751L143.791 165.198L139.729 166.45L133.42 168.669L127.098 169.919L120.771 171.379L113.886 172.544L106.997 173.432L106.94 162.914L113.366 162.178L119.594 161.306L132.029 158.665L138.448 156.819L143.734 154.709L148.194 156.681L150.617 158.048L153.042 159.797L148.852 162.751Z" fill="#EA580C"/>
<path d="M37.295 40.5101L38.8877 40.3433L40.1673 39.9465L42.1543 39.9596L44.1474 39.686L46.1412 39.6913L48.312 39.4896L50.8369 39.4896L50.8369 46.2867L48.4959 46.1506L46.5322 45.861L42.6125 45.3425L37.8364 44.6852L34.2993 44.016L32.1485 43.4903L29.9976 42.9645L33.6463 41.5461L37.295 40.5101Z" fill="#FED7AA"/>
<path d="M126.783 154.074L125.191 154.249L123.913 154.653L121.926 154.65L119.935 154.935L117.941 154.94L115.771 155.154L113.246 155.167L113.21 148.37L115.551 148.494L117.517 148.773L121.439 149.27L126.219 149.901L129.759 150.551L131.913 151.066L134.067 151.58L130.426 153.018L126.783 154.074Z" fill="#EA580C"/>
<path d="M2.91147 29.0347H3.29384L3.67621 31.1377L4.34536 33.0495L5.77924 35.1526L10.9412 40.3146L28.0523 48.2487L45.1633 52.7416L64.6641 55.1314L84.165 56.3741V140.495H64.6641L37.3247 136.098L25.6625 132.083L14.0002 127.304L0.999626 116.215L2.91147 29.0347Z" fill="url(#paint10_linear_0_130)"/>
<path d="M84.1722 55.9907L95.1654 56.2297L106.158 57.2334L117.152 58.2371L128.145 60.0056L149.749 66.8883L157.874 71.8591L165.999 79.1241V166.495L160.837 158.848L152.616 153.113L137.513 147.09L122.409 144.127L103.291 141.546L84.1722 140.494V55.9907Z" fill="url(#paint11_linear_0_130)"/>
<path d="M9.0288 23.8728L12.2787 18.5196L18.2061 13.6053L27.3833 9.45573L36.5606 6.64443L45.7378 4.59787L55.7175 2.95538L65.6971 1.69525L65.6971 12.7841L56.2925 13.5662L51.7814 14.5657L47.2702 15.1828L38.248 17.7553L29.2257 19.9455L19.8918 24.1078L10.9404 31.7114L9.02866 27.2185L9.0288 23.8728Z" fill="#FED7AA"/>
<path d="M160.186 172.592L156.965 177.962L151.064 182.909L141.909 187.108L132.748 189.969L123.582 192.065L113.611 193.762L103.638 195.076L103.578 183.987L112.978 183.154L117.484 182.13L121.992 181.489L131 178.867L140.01 176.628L149.321 172.416L158.232 164.764L160.168 169.246L160.186 172.592Z" fill="#EA580C"/>
<path d="M20.2927 33.751L25.367 31.3311L29.4357 30.1013L35.7566 27.9163L42.0859 26.7011L48.4199 25.2752L55.3113 24.1471L62.2051 23.2961L62.2051 33.8143L55.7749 34.5158L49.5431 35.354L37.0936 37.9281L30.6645 39.7389L25.367 41.8201L20.9182 39.8247L18.5026 38.4446L16.0869 36.6821L20.2927 33.751Z" fill="#FED7AA"/>
<path d="M148.845 162.776L143.783 165.223L139.721 166.475L133.412 168.694L127.09 169.943L120.764 171.404L113.878 172.569L106.989 173.457L106.932 162.939L113.359 162.203L119.586 161.331L132.021 158.69L138.44 156.844L143.727 154.734L148.186 156.705L150.609 158.072L153.034 159.822L148.845 162.776Z" fill="#EA580C"/>
<path d="M37.2872 40.535L38.8799 40.3682L40.1595 39.9714L42.1464 39.9845L44.1395 39.7109L46.1334 39.7162L48.3042 39.5145L50.8291 39.5145L50.8291 46.3116L48.4881 46.1755L46.5244 45.8859L42.6047 45.3674L37.8286 44.7101L34.2915 44.0409L32.1406 43.5152L29.9898 42.9894L33.6385 41.571L37.2872 40.535Z" fill="#FED7AA"/>
<path d="M126.775 154.098L125.183 154.274L123.906 154.678L121.919 154.675L119.927 154.96L117.933 154.965L115.763 155.179L113.239 155.192L113.202 148.395L115.543 148.519L117.509 148.798L121.431 149.295L126.211 149.926L129.751 150.576L131.905 151.09L134.059 151.605L130.418 153.043L126.775 154.098Z" fill="#EA580C"/>
<path d="M75.1219 41.333C75.1162 40.7024 74.8939 40.1929 74.4549 39.8046C74.016 39.4162 73.3937 39.1857 72.5879 39.1132C72.0403 39.064 71.5711 39.0999 71.1801 39.2209C70.7895 39.3368 70.4814 39.5199 70.2558 39.7704C70.0354 40.0214 69.9098 40.3173 69.8791 40.6582C69.8432 40.9414 69.8803 41.1947 69.9904 41.4181C70.1057 41.6419 70.2725 41.8418 70.491 42.0177C70.71 42.1884 70.9667 42.3443 71.2613 42.4853C71.5563 42.6212 71.8733 42.7435 72.2124 42.8521L73.6074 43.3213C74.2856 43.5385 74.9024 43.8023 75.4577 44.1126C76.0129 44.4229 76.4854 44.7857 76.875 45.2009C77.2647 45.616 77.5527 46.0898 77.7391 46.6221C77.9307 47.1548 77.9994 47.752 77.945 48.4136C77.8525 49.3843 77.5288 50.2039 76.974 50.8726C76.4248 51.5365 75.6728 52.0235 74.718 52.3333C73.7689 52.6384 72.6486 52.7329 71.3573 52.6167C70.0763 52.5015 68.9782 52.2048 68.0631 51.7267C67.1532 51.2491 66.4668 50.6015 66.004 49.784C65.5469 48.9618 65.3567 47.9788 65.4336 46.8349L68.6801 47.127C68.6683 47.6623 68.7808 48.1202 69.0173 48.5008C69.2594 48.8767 69.5997 49.1755 70.038 49.3971C70.4819 49.6141 70.9931 49.7486 71.5716 49.8007C72.1398 49.8518 72.6405 49.8136 73.0738 49.6859C73.5122 49.5587 73.8609 49.3584 74.1199 49.0849C74.3788 48.8114 74.5254 48.4835 74.5598 48.1012C74.5919 47.7448 74.513 47.4357 74.323 47.1739C74.1383 46.9125 73.8521 46.6785 73.4645 46.4718C73.0821 46.2655 72.6079 46.0667 72.042 45.8751L70.3532 45.2858C69.0446 44.84 68.0341 44.2362 67.3216 43.4743C66.609 42.7124 66.3081 41.7455 66.4188 40.5734C66.5 39.6122 66.8313 38.7958 67.4124 38.1243C67.9987 37.4532 68.7645 36.9571 69.7099 36.636C70.6552 36.3149 71.7064 36.2064 72.8635 36.3105C74.0412 36.4165 75.051 36.7104 75.8928 37.1923C76.7399 37.6747 77.3764 38.297 77.8025 39.0591C78.2287 39.8212 78.4069 40.6756 78.3374 41.6223L75.1219 41.333Z" fill="#FDBA74"/>
<path d="M96.2267 52.9725L97.6544 37.1045L108.161 38.0498L107.912 40.8158L100.76 40.1724L100.42 43.9535L106.874 44.5342L106.625 47.3002L100.171 46.7195L99.5816 53.2744L96.2267 52.9725Z" fill="#FDBA74"/>
<path d="M108.117 54.0423L109.545 38.1743L120.237 39.1363L119.988 41.9024L112.651 41.2422L112.31 45.0233L119.098 45.6339L118.849 48.4L112.062 47.7893L111.721 51.5781L119.089 52.2411L118.84 55.0071L108.117 54.0423Z" fill="#FDBA74"/>
<path d="M122.812 43.2376L123.455 40.5356L136.185 43.5618L135.543 46.2637L130.797 45.1357L127.755 57.9339L124.515 57.1639L127.558 44.3656L122.812 43.2376Z" fill="#EA580C"/>
<path d="M133.744 59.3577L137.429 43.8575L143.544 45.3112C144.715 45.5895 145.664 46.0364 146.392 46.6519C147.126 47.2635 147.62 48.0019 147.872 48.8669C148.131 49.7281 148.139 50.6708 147.896 51.6951C147.651 52.7244 147.219 53.5571 146.598 54.1933C145.979 54.8244 145.201 55.2366 144.265 55.4298C143.334 55.6243 142.273 55.58 141.082 55.2969L136.988 54.3236L137.614 51.6898L141.179 52.5372C141.804 52.6859 142.344 52.7237 142.799 52.6505C143.254 52.5773 143.622 52.3931 143.906 52.098C144.194 51.804 144.399 51.4023 144.52 50.8927C144.643 50.378 144.642 49.9195 144.519 49.5171C144.401 49.116 144.155 48.7748 143.779 48.4936C143.41 48.2085 142.91 47.9911 142.279 47.8411L140.069 47.3158L137.021 60.1367L133.744 59.3577ZM143.792 54.2938L145.967 62.2633L142.349 61.4033L140.257 53.4536L143.792 54.2938Z" fill="#EA580C"/>
<path d="M149.55 63.115L146.038 62.2802L155.074 48.052L159.297 49.0559L160.955 65.8263L157.444 64.9915L156.404 52.1104L156.283 52.0816L149.55 63.115ZM150.779 56.9702L159.074 58.942L158.466 61.5002L150.171 59.5283L150.779 56.9702Z" fill="#EA580C"/>
<path d="M81.4907 37.3067C81.7828 34.0603 84.6512 31.6654 87.8976 31.9575C91.144 32.2496 93.5389 35.1181 93.2468 38.3644L92.9625 41.5247C92.6704 44.771 89.8019 47.1659 86.5555 46.8739C83.3092 46.5818 80.9142 43.7133 81.2063 40.4669L81.4907 37.3067Z" fill="#EA580C"/>
<path d="M82.3759 37.3862C82.624 34.6286 85.0606 32.5942 87.8183 32.8423C90.576 33.0904 92.6104 35.5271 92.3622 38.2847L92.1007 41.1922C91.8525 43.9498 89.4159 45.9842 86.6582 45.7361C83.9005 45.488 81.8661 43.0513 82.1143 40.2937L82.3759 37.3862Z" fill="white"/>
<path d="M79.0329 48.2004C78.8366 48.3116 78.7603 48.5573 78.8679 48.7557C79.6085 50.1226 80.6342 51.2873 81.8613 52.1511C83.1939 53.0892 84.7185 53.6403 86.286 53.7507C87.8536 53.8611 89.4105 53.5268 90.8046 52.7807C92.0854 52.0952 93.1886 51.0836 94.0244 49.8317C94.1504 49.643 94.1 49.3906 93.9175 49.2558C93.7105 49.103 93.4178 49.1613 93.2721 49.3734C92.5223 50.4646 91.5458 51.3479 90.4171 51.952C89.1529 52.6286 87.7411 52.9316 86.3196 52.8316C84.8981 52.7315 83.5156 52.2317 82.3072 51.381C81.2171 50.6137 80.3024 49.5845 79.6341 48.3776C79.5156 48.1636 79.2458 48.0798 79.0329 48.2004Z" fill="#EA580C"/>
<path d="M94.2323 45.9069C93.8617 50.0259 90.2221 53.0646 86.1031 52.694C81.984 52.3234 78.9453 48.6839 79.3159 44.5648C79.6865 40.4458 83.3261 37.4071 87.4451 37.7777C91.5642 38.1483 94.6029 41.7879 94.2323 45.9069Z" fill="white"/>
<path d="M93.4742 45.8386C93.1413 49.5388 89.8719 52.2685 86.1717 51.9355C82.4716 51.6026 79.7419 48.3332 80.0748 44.633C80.4077 40.9329 83.6772 38.2032 87.3773 38.5361C91.0775 38.869 93.8072 42.1385 93.4742 45.8386Z" fill="#FDBA74"/>
<path d="M91.1991 45.6339C90.9792 48.0774 88.8202 49.88 86.3767 49.6601C83.9332 49.4403 82.1305 47.2812 82.3504 44.8377C82.5702 42.3942 84.7293 40.5916 87.1728 40.8114C89.6163 41.0313 91.4189 43.1904 91.1991 45.6339Z" fill="white"/>
<path d="M91.1991 45.6339C90.9792 48.0774 88.8202 49.88 86.3767 49.6601C83.9332 49.4403 82.1305 47.2812 82.3504 44.8377C82.5702 42.3942 84.7293 40.5916 87.1728 40.8114C89.6163 41.0313 91.4189 43.1904 91.1991 45.6339Z" fill="white"/>
<path d="M90.693 45.5884C90.4983 47.7526 88.586 49.3492 86.4217 49.1545C84.2575 48.9598 82.6609 47.0475 82.8556 44.8832C83.0503 42.719 84.9627 41.1224 87.1269 41.3171C89.2911 41.5118 90.8877 43.4241 90.693 45.5884Z" fill="white"/>
<path d="M90.693 45.5884C90.4983 47.7526 88.586 49.3492 86.4217 49.1545C84.2575 48.9598 82.6609 47.0475 82.8556 44.8832C83.0503 42.719 84.9627 41.1224 87.1269 41.3171C89.2911 41.5118 90.8877 43.4241 90.693 45.5884Z" fill="#FDBA74"/>
<path d="M84.8785 45.3334L85.8372 46.4816L88.7076 44.085" stroke="white" stroke-width="0.5" stroke-linecap="round" stroke-linejoin="round"/>
<defs>
<linearGradient id="paint0_linear_0_130" x1="38.8122" y1="89.2896" x2="-58.5448" y2="-38.4916" gradientUnits="userSpaceOnUse">
<stop stop-color="#FB923C"/>
<stop offset="1" stop-color="#FB923C" stop-opacity="0"/>
</linearGradient>
<linearGradient id="paint1_linear_0_130" x1="88.8219" y1="89.8598" x2="227.442" y2="150.138" gradientUnits="userSpaceOnUse">
<stop stop-color="#EA580C"/>
<stop offset="1" stop-color="#EA580C" stop-opacity="0"/>
</linearGradient>
<linearGradient id="paint2_linear_0_130" x1="39.0571" y1="89.5898" x2="-58.8295" y2="-38.8864" gradientUnits="userSpaceOnUse">
<stop stop-color="#FB923C"/>
<stop offset="1" stop-color="#FB923C" stop-opacity="0"/>
</linearGradient>
<linearGradient id="paint3_linear_0_130" x1="89.3459" y1="90.1623" x2="228.72" y2="150.768" gradientUnits="userSpaceOnUse">
<stop stop-color="#EA580C"/>
<stop offset="1" stop-color="#EA580C" stop-opacity="0"/>
</linearGradient>
<linearGradient id="paint4_linear_0_130" x1="39.0551" y1="89.932" x2="-58.8314" y2="-38.5441" gradientUnits="userSpaceOnUse">
<stop stop-color="#FB923C"/>
<stop offset="1" stop-color="#FB923C" stop-opacity="0"/>
</linearGradient>
<linearGradient id="paint5_linear_0_130" x1="89.344" y1="90.5046" x2="228.718" y2="151.11" gradientUnits="userSpaceOnUse">
<stop stop-color="#EA580C"/>
<stop offset="1" stop-color="#EA580C" stop-opacity="0"/>
</linearGradient>
<linearGradient id="paint6_linear_0_130" x1="39.0532" y1="90.1034" x2="-58.8334" y2="-38.3727" gradientUnits="userSpaceOnUse">
<stop stop-color="#FB923C"/>
<stop offset="1" stop-color="#FB923C" stop-opacity="0"/>
</linearGradient>
<linearGradient id="paint7_linear_0_130" x1="89.342" y1="90.676" x2="228.716" y2="151.282" gradientUnits="userSpaceOnUse">
<stop stop-color="#EA580C"/>
<stop offset="1" stop-color="#EA580C" stop-opacity="0"/>
</linearGradient>
<linearGradient id="paint8_linear_0_130" x1="39.0532" y1="90.1889" x2="-58.8334" y2="-38.2873" gradientUnits="userSpaceOnUse">
<stop stop-color="#FB923C"/>
<stop offset="1" stop-color="#FB923C" stop-opacity="0"/>
</linearGradient>
<linearGradient id="paint9_linear_0_130" x1="89.342" y1="90.7614" x2="228.716" y2="151.367" gradientUnits="userSpaceOnUse">
<stop stop-color="#EA580C"/>
<stop offset="1" stop-color="#EA580C" stop-opacity="0"/>
</linearGradient>
<linearGradient id="paint10_linear_0_130" x1="39.0454" y1="90.2138" x2="-58.8412" y2="-38.2624" gradientUnits="userSpaceOnUse">
<stop stop-color="#FB923C"/>
<stop offset="1" stop-color="#FB923C" stop-opacity="0"/>
</linearGradient>
<linearGradient id="paint11_linear_0_130" x1="89.3342" y1="90.7863" x2="228.708" y2="151.392" gradientUnits="userSpaceOnUse">
<stop stop-color="#EA580C"/>
<stop offset="1" stop-color="#EA580C" stop-opacity="0"/>
</linearGradient>
</defs>
</svg>
