<svg width="49" height="58" viewBox="0 0 49 58" fill="none" xmlns="http://www.w3.org/2000/svg">
<path d="M0.559696 8.49139H0.671629L0.783562 9.10703L0.979445 9.66669L1.39919 10.2823L2.91029 11.7934L7.9193 14.116L12.9283 15.4312L18.6369 16.1308L24.3455 16.4946V41.1199H18.6369L10.6337 39.8327L7.21971 38.6574L3.80576 37.2582L3.05176e-05 34.0121L0.559696 8.49139Z" fill="url(#paint0_linear_0_630)"/>
<path d="M24.3483 16.3827L27.5664 16.4526L30.7845 16.7465L34.0025 17.0403L37.2206 17.558L43.5448 19.5728L45.9234 21.0279L48.302 23.1546V48.7314L46.7909 46.4927L44.3843 44.8137L39.963 43.0508L35.5416 42.1833L29.945 41.4277L24.3483 41.1199V16.3827Z" fill="url(#paint1_linear_0_630)"/>
<path d="M2.34931 6.98068L3.30066 5.41361L5.03582 3.97502L7.72233 2.76029L10.4088 1.93732L13.0953 1.33822L16.0167 0.857402L18.9381 0.488518L18.9381 3.73462L16.1851 3.96356L14.8645 4.25615L13.5439 4.4368L10.9028 5.18988L8.26166 5.83102L5.52931 7.04946L2.9089 9.2753L2.34927 7.96009L2.34931 6.98068Z" fill="#FED7AA"/>
<path d="M46.5994 50.5161L45.6566 52.0883L43.9292 53.5362L41.2493 54.7655L38.5673 55.603L35.8841 56.2166L32.9653 56.7132L30.046 57.0979L30.0284 53.8519L32.7802 53.608L34.0992 53.3083L35.4187 53.1205L38.0558 52.3531L40.6934 51.6977L43.4191 50.4645L46.0274 48.2245L46.5942 49.5367L46.5994 50.5161Z" fill="#EA580C"/>
<path d="M5.64861 9.87254L7.13406 9.16413L8.32509 8.80412L10.1755 8.16451L12.0282 7.80876L13.8824 7.39136L15.8998 7.06113L17.9179 6.81201L17.9179 9.89107L16.0355 10.0964L14.2112 10.3418L10.5668 11.0953L8.6848 11.6254L7.13405 12.2346L5.83171 11.6505L5.12458 11.2465L4.41744 10.7306L5.64861 9.87254Z" fill="#FED7AA"/>
<path d="M43.2795 47.6425L41.7979 48.359L40.6089 48.7254L38.762 49.375L36.9111 49.7408L35.0592 50.1682L33.0437 50.5094L31.027 50.7694L31.0103 47.6904L32.8915 47.4749L34.7145 47.2196L38.3547 46.4464L40.2339 45.9061L41.7813 45.2885L43.0868 45.8656L43.7961 46.2657L44.506 46.7778L43.2795 47.6425Z" fill="#EA580C"/>
<path d="M12.9216 13.008L13.3878 12.9592L13.7624 12.843L14.3441 12.8468L14.9275 12.7667L15.5112 12.7683L16.1467 12.7092L16.8858 12.7092L16.8858 14.699L16.2005 14.6592L15.6256 14.5744L14.4782 14.4226L13.0801 14.2302L12.0447 14.0343L11.415 13.8804L10.7854 13.7265L11.8535 13.3113L12.9216 13.008Z" fill="#FED7AA"/>
<path d="M36.8178 45.1021L36.3519 45.1534L35.9779 45.2716L35.3963 45.2709L34.8132 45.3542L34.2296 45.3558L33.5944 45.4183L32.8553 45.4223L32.8445 43.4325L33.53 43.4687L34.1053 43.5503L35.2536 43.6959L36.6527 43.8807L37.6892 44.071L38.3197 44.2215L38.9501 44.372L37.8843 44.793L36.8178 45.1021Z" fill="#EA580C"/>
<defs>
<linearGradient id="paint0_linear_0_630" x1="11.1374" y1="26.4007" x2="-17.5175" y2="-11.2088" gradientUnits="userSpaceOnUse">
<stop stop-color="#FB923C"/>
<stop offset="1" stop-color="#FB923C" stop-opacity="0"/>
</linearGradient>
<linearGradient id="paint1_linear_0_630" x1="25.8594" y1="26.5686" x2="66.659" y2="44.31" gradientUnits="userSpaceOnUse">
<stop stop-color="#EA580C"/>
<stop offset="1" stop-color="#EA580C" stop-opacity="0"/>
</linearGradient>
</defs>
</svg>
